<mxfile host="app.diagrams.net" modified="2022-06-16T06:51:25.114Z" agent="5.0 (Macintosh; Intel Mac OS X 10_15_7) AppleWebKit/537.36 (KHTML, like Gecko) Chrome/102.0.0.0 Safari/537.36" etag="PB5YKyXg68T58JAVx024" version="19.0.3" type="github">
  <diagram id="1osrGMnRQ9X2t5vXflmE" name="Page-1">
    <mxGraphModel dx="2276" dy="688" grid="1" gridSize="10" guides="1" tooltips="1" connect="1" arrows="1" fold="1" page="1" pageScale="1" pageWidth="850" pageHeight="1100" math="0" shadow="0">
      <root>
        <mxCell id="0" />
        <mxCell id="1" parent="0" />
        <mxCell id="uLUA4ShN2IrWvBxa2cWi-19" style="edgeStyle=orthogonalEdgeStyle;rounded=0;orthogonalLoop=1;jettySize=auto;html=1;exitX=0.25;exitY=1;exitDx=0;exitDy=0;entryX=0.5;entryY=0;entryDx=0;entryDy=0;fontSize=14;" edge="1" parent="1" source="uLUA4ShN2IrWvBxa2cWi-1" target="uLUA4ShN2IrWvBxa2cWi-4">
          <mxGeometry relative="1" as="geometry" />
        </mxCell>
        <mxCell id="uLUA4ShN2IrWvBxa2cWi-20" style="edgeStyle=orthogonalEdgeStyle;rounded=0;orthogonalLoop=1;jettySize=auto;html=1;exitX=0.75;exitY=1;exitDx=0;exitDy=0;entryX=0.5;entryY=0;entryDx=0;entryDy=0;fontSize=14;" edge="1" parent="1" source="uLUA4ShN2IrWvBxa2cWi-1" target="uLUA4ShN2IrWvBxa2cWi-7">
          <mxGeometry relative="1" as="geometry" />
        </mxCell>
        <mxCell id="uLUA4ShN2IrWvBxa2cWi-1" value="Pool Service" style="rounded=0;whiteSpace=wrap;html=1;fontSize=14;" vertex="1" parent="1">
          <mxGeometry x="150" y="310" width="120" height="60" as="geometry" />
        </mxCell>
        <mxCell id="uLUA4ShN2IrWvBxa2cWi-21" style="edgeStyle=orthogonalEdgeStyle;rounded=0;orthogonalLoop=1;jettySize=auto;html=1;exitX=0.25;exitY=1;exitDx=0;exitDy=0;entryX=0.5;entryY=0;entryDx=0;entryDy=0;fontSize=14;" edge="1" parent="1" source="uLUA4ShN2IrWvBxa2cWi-2" target="uLUA4ShN2IrWvBxa2cWi-5">
          <mxGeometry relative="1" as="geometry">
            <Array as="points">
              <mxPoint x="410" y="450" />
              <mxPoint x="300" y="450" />
            </Array>
          </mxGeometry>
        </mxCell>
        <mxCell id="uLUA4ShN2IrWvBxa2cWi-22" style="edgeStyle=orthogonalEdgeStyle;rounded=0;orthogonalLoop=1;jettySize=auto;html=1;exitX=0.75;exitY=1;exitDx=0;exitDy=0;entryX=0.5;entryY=0;entryDx=0;entryDy=0;fontSize=14;" edge="1" parent="1" source="uLUA4ShN2IrWvBxa2cWi-2" target="uLUA4ShN2IrWvBxa2cWi-8">
          <mxGeometry relative="1" as="geometry">
            <Array as="points">
              <mxPoint x="470" y="450" />
              <mxPoint x="880" y="450" />
            </Array>
          </mxGeometry>
        </mxCell>
        <mxCell id="uLUA4ShN2IrWvBxa2cWi-2" value="Token Service" style="rounded=0;whiteSpace=wrap;html=1;fontSize=14;" vertex="1" parent="1">
          <mxGeometry x="380" y="310" width="120" height="60" as="geometry" />
        </mxCell>
        <mxCell id="uLUA4ShN2IrWvBxa2cWi-23" style="edgeStyle=orthogonalEdgeStyle;rounded=0;orthogonalLoop=1;jettySize=auto;html=1;exitX=0.25;exitY=1;exitDx=0;exitDy=0;entryX=0.5;entryY=0;entryDx=0;entryDy=0;fontSize=14;" edge="1" parent="1" source="uLUA4ShN2IrWvBxa2cWi-3" target="uLUA4ShN2IrWvBxa2cWi-6">
          <mxGeometry relative="1" as="geometry">
            <Array as="points">
              <mxPoint x="840" y="400" />
              <mxPoint x="510" y="400" />
            </Array>
          </mxGeometry>
        </mxCell>
        <mxCell id="uLUA4ShN2IrWvBxa2cWi-25" style="edgeStyle=orthogonalEdgeStyle;rounded=0;orthogonalLoop=1;jettySize=auto;html=1;exitX=0.75;exitY=1;exitDx=0;exitDy=0;entryX=0.5;entryY=0;entryDx=0;entryDy=0;fontSize=14;" edge="1" parent="1" source="uLUA4ShN2IrWvBxa2cWi-3" target="uLUA4ShN2IrWvBxa2cWi-9">
          <mxGeometry relative="1" as="geometry">
            <Array as="points">
              <mxPoint x="900" y="400" />
              <mxPoint x="1080" y="400" />
            </Array>
          </mxGeometry>
        </mxCell>
        <mxCell id="uLUA4ShN2IrWvBxa2cWi-3" value="Price Service" style="rounded=0;whiteSpace=wrap;html=1;fontSize=14;" vertex="1" parent="1">
          <mxGeometry x="810" y="310" width="120" height="60" as="geometry" />
        </mxCell>
        <mxCell id="uLUA4ShN2IrWvBxa2cWi-13" style="edgeStyle=orthogonalEdgeStyle;rounded=0;orthogonalLoop=1;jettySize=auto;html=1;exitX=0.5;exitY=1;exitDx=0;exitDy=0;entryX=0.25;entryY=0;entryDx=0;entryDy=0;fontSize=14;" edge="1" parent="1" source="uLUA4ShN2IrWvBxa2cWi-4" target="uLUA4ShN2IrWvBxa2cWi-11">
          <mxGeometry relative="1" as="geometry" />
        </mxCell>
        <mxCell id="uLUA4ShN2IrWvBxa2cWi-4" value="Pool Datastore Repository" style="rounded=0;whiteSpace=wrap;html=1;fontSize=14;" vertex="1" parent="1">
          <mxGeometry x="70" y="560" width="120" height="60" as="geometry" />
        </mxCell>
        <mxCell id="uLUA4ShN2IrWvBxa2cWi-14" style="edgeStyle=orthogonalEdgeStyle;rounded=0;orthogonalLoop=1;jettySize=auto;html=1;entryX=0.5;entryY=0;entryDx=0;entryDy=0;fontSize=14;" edge="1" parent="1" source="uLUA4ShN2IrWvBxa2cWi-5" target="uLUA4ShN2IrWvBxa2cWi-11">
          <mxGeometry relative="1" as="geometry" />
        </mxCell>
        <mxCell id="uLUA4ShN2IrWvBxa2cWi-5" value="Token Datastore Repository" style="rounded=0;whiteSpace=wrap;html=1;fontSize=14;" vertex="1" parent="1">
          <mxGeometry x="240" y="560" width="120" height="60" as="geometry" />
        </mxCell>
        <mxCell id="uLUA4ShN2IrWvBxa2cWi-15" style="edgeStyle=orthogonalEdgeStyle;rounded=0;orthogonalLoop=1;jettySize=auto;html=1;entryX=0.75;entryY=0;entryDx=0;entryDy=0;fontSize=14;exitX=0.5;exitY=1;exitDx=0;exitDy=0;" edge="1" parent="1" source="uLUA4ShN2IrWvBxa2cWi-6" target="uLUA4ShN2IrWvBxa2cWi-11">
          <mxGeometry relative="1" as="geometry" />
        </mxCell>
        <mxCell id="uLUA4ShN2IrWvBxa2cWi-6" value="Price Datastore Repository" style="rounded=0;whiteSpace=wrap;html=1;fontSize=14;" vertex="1" parent="1">
          <mxGeometry x="450" y="560" width="120" height="60" as="geometry" />
        </mxCell>
        <mxCell id="uLUA4ShN2IrWvBxa2cWi-16" style="edgeStyle=orthogonalEdgeStyle;rounded=0;orthogonalLoop=1;jettySize=auto;html=1;exitX=0.5;exitY=1;exitDx=0;exitDy=0;entryX=0.25;entryY=0;entryDx=0;entryDy=0;fontSize=14;" edge="1" parent="1" source="uLUA4ShN2IrWvBxa2cWi-7" target="uLUA4ShN2IrWvBxa2cWi-12">
          <mxGeometry relative="1" as="geometry" />
        </mxCell>
        <mxCell id="uLUA4ShN2IrWvBxa2cWi-7" value="Pool Cache Repository" style="rounded=0;whiteSpace=wrap;html=1;fontSize=14;" vertex="1" parent="1">
          <mxGeometry x="640" y="560" width="120" height="60" as="geometry" />
        </mxCell>
        <mxCell id="uLUA4ShN2IrWvBxa2cWi-17" style="edgeStyle=orthogonalEdgeStyle;rounded=0;orthogonalLoop=1;jettySize=auto;html=1;exitX=0.5;exitY=1;exitDx=0;exitDy=0;entryX=0.5;entryY=0;entryDx=0;entryDy=0;fontSize=14;" edge="1" parent="1" source="uLUA4ShN2IrWvBxa2cWi-8" target="uLUA4ShN2IrWvBxa2cWi-12">
          <mxGeometry relative="1" as="geometry" />
        </mxCell>
        <mxCell id="uLUA4ShN2IrWvBxa2cWi-8" value="Token Cache Repository" style="rounded=0;whiteSpace=wrap;html=1;fontSize=14;" vertex="1" parent="1">
          <mxGeometry x="820" y="560" width="120" height="60" as="geometry" />
        </mxCell>
        <mxCell id="uLUA4ShN2IrWvBxa2cWi-18" style="edgeStyle=orthogonalEdgeStyle;rounded=0;orthogonalLoop=1;jettySize=auto;html=1;exitX=0.5;exitY=1;exitDx=0;exitDy=0;entryX=0.75;entryY=0;entryDx=0;entryDy=0;fontSize=14;" edge="1" parent="1" source="uLUA4ShN2IrWvBxa2cWi-9" target="uLUA4ShN2IrWvBxa2cWi-12">
          <mxGeometry relative="1" as="geometry" />
        </mxCell>
        <mxCell id="uLUA4ShN2IrWvBxa2cWi-9" value="Price Cache Repository" style="rounded=0;whiteSpace=wrap;html=1;fontSize=14;" vertex="1" parent="1">
          <mxGeometry x="1020" y="560" width="120" height="60" as="geometry" />
        </mxCell>
        <mxCell id="uLUA4ShN2IrWvBxa2cWi-11" value="Redis" style="rounded=0;whiteSpace=wrap;html=1;fontSize=14;" vertex="1" parent="1">
          <mxGeometry x="240" y="890" width="120" height="60" as="geometry" />
        </mxCell>
        <mxCell id="uLUA4ShN2IrWvBxa2cWi-12" value="In-mem concurrentMap" style="rounded=0;whiteSpace=wrap;html=1;fontSize=14;" vertex="1" parent="1">
          <mxGeometry x="820" y="890" width="120" height="60" as="geometry" />
        </mxCell>
        <mxCell id="uLUA4ShN2IrWvBxa2cWi-29" style="edgeStyle=orthogonalEdgeStyle;rounded=0;orthogonalLoop=1;jettySize=auto;html=1;exitX=0.5;exitY=1;exitDx=0;exitDy=0;entryX=0.5;entryY=0;entryDx=0;entryDy=0;fontSize=14;" edge="1" parent="1" source="uLUA4ShN2IrWvBxa2cWi-26" target="uLUA4ShN2IrWvBxa2cWi-1">
          <mxGeometry relative="1" as="geometry" />
        </mxCell>
        <mxCell id="uLUA4ShN2IrWvBxa2cWi-26" value="Pool API" style="rounded=0;whiteSpace=wrap;html=1;fontSize=14;" vertex="1" parent="1">
          <mxGeometry x="150" y="100" width="120" height="60" as="geometry" />
        </mxCell>
        <mxCell id="uLUA4ShN2IrWvBxa2cWi-30" style="edgeStyle=orthogonalEdgeStyle;rounded=0;orthogonalLoop=1;jettySize=auto;html=1;entryX=0.5;entryY=0;entryDx=0;entryDy=0;fontSize=14;" edge="1" parent="1" source="uLUA4ShN2IrWvBxa2cWi-27" target="uLUA4ShN2IrWvBxa2cWi-2">
          <mxGeometry relative="1" as="geometry" />
        </mxCell>
        <mxCell id="uLUA4ShN2IrWvBxa2cWi-27" value="Token API" style="rounded=0;whiteSpace=wrap;html=1;fontSize=14;" vertex="1" parent="1">
          <mxGeometry x="380" y="100" width="120" height="60" as="geometry" />
        </mxCell>
        <mxCell id="uLUA4ShN2IrWvBxa2cWi-31" style="edgeStyle=orthogonalEdgeStyle;rounded=0;orthogonalLoop=1;jettySize=auto;html=1;entryX=0.5;entryY=0;entryDx=0;entryDy=0;fontSize=14;" edge="1" parent="1" source="uLUA4ShN2IrWvBxa2cWi-28" target="uLUA4ShN2IrWvBxa2cWi-3">
          <mxGeometry relative="1" as="geometry" />
        </mxCell>
        <mxCell id="uLUA4ShN2IrWvBxa2cWi-28" value="Price API" style="rounded=0;whiteSpace=wrap;html=1;fontSize=14;" vertex="1" parent="1">
          <mxGeometry x="810" y="100" width="120" height="60" as="geometry" />
        </mxCell>
        <mxCell id="uLUA4ShN2IrWvBxa2cWi-33" style="edgeStyle=orthogonalEdgeStyle;rounded=0;orthogonalLoop=1;jettySize=auto;html=1;entryX=0;entryY=0.5;entryDx=0;entryDy=0;fontSize=14;" edge="1" parent="1" source="uLUA4ShN2IrWvBxa2cWi-32" target="uLUA4ShN2IrWvBxa2cWi-1">
          <mxGeometry relative="1" as="geometry" />
        </mxCell>
        <mxCell id="uLUA4ShN2IrWvBxa2cWi-34" style="edgeStyle=orthogonalEdgeStyle;rounded=0;orthogonalLoop=1;jettySize=auto;html=1;exitX=0.75;exitY=0;exitDx=0;exitDy=0;entryX=0.25;entryY=0;entryDx=0;entryDy=0;fontSize=14;" edge="1" parent="1" source="uLUA4ShN2IrWvBxa2cWi-32" target="uLUA4ShN2IrWvBxa2cWi-2">
          <mxGeometry relative="1" as="geometry">
            <Array as="points">
              <mxPoint x="-30" y="260" />
              <mxPoint x="410" y="260" />
            </Array>
          </mxGeometry>
        </mxCell>
        <mxCell id="uLUA4ShN2IrWvBxa2cWi-35" style="edgeStyle=orthogonalEdgeStyle;rounded=0;orthogonalLoop=1;jettySize=auto;html=1;exitX=0.5;exitY=0;exitDx=0;exitDy=0;entryX=0.25;entryY=0;entryDx=0;entryDy=0;fontSize=14;" edge="1" parent="1" source="uLUA4ShN2IrWvBxa2cWi-32" target="uLUA4ShN2IrWvBxa2cWi-3">
          <mxGeometry relative="1" as="geometry">
            <Array as="points">
              <mxPoint x="-60" y="220" />
              <mxPoint x="840" y="220" />
            </Array>
          </mxGeometry>
        </mxCell>
        <mxCell id="uLUA4ShN2IrWvBxa2cWi-32" value="Scan Service" style="rounded=0;whiteSpace=wrap;html=1;fontSize=14;" vertex="1" parent="1">
          <mxGeometry x="-120" y="310" width="120" height="60" as="geometry" />
        </mxCell>
      </root>
    </mxGraphModel>
  </diagram>
</mxfile>
